<svg width="24" height="24" viewBox="0 0 24 24" fill="none" xmlns="http://www.w3.org/2000/svg">
<g opacity="0.4">
<path d="M13.3904 17.36L10.6404 14.61M13.3604 14.64L10.6104 17.39" stroke="white" stroke-width="1.5" stroke-miterlimit="10" stroke-linecap="round" stroke-linejoin="round"/>
</g>
<path opacity="0.4" d="M8.81043 2L5.19043 5.63M15.1904 2L18.8104 5.63" stroke="white" stroke-width="1.5" stroke-miterlimit="10" stroke-linecap="round" stroke-linejoin="round"/>
<path d="M2 7.85205C2 6.00205 2.99 5.85205 4.22 5.85205H19.78C21.01 5.85205 22 6.00205 22 7.85205C22 10.0021 21.01 9.85205 19.78 9.85205H4.22C2.99 9.85205 2 10.0021 2 7.85205V7.85205Z" stroke="white" stroke-width="1.5"/>
<path d="M3.5 10L4.91 18.64C5.23 20.58 6 22 8.86 22H14.89C18 22 18.46 20.64 18.82 18.76L20.5 10" stroke="white" stroke-width="1.5" stroke-linecap="round"/>
</svg>
